<svg viewBox="0 0 143.5 127.4" xmlns="http://www.w3.org/2000/svg">
  <defs></defs>
  <path fill="#c0ba00" d="M 0,21 43,27.5 50,53.5 Z"/>
  <path fill="#009275" d="M 28,39.5 50.4,54.3 34.7,73 Z"/>
  <path fill="#66b300" d="M 48,43.5 79.3,70.7 57,76.3 Z"/>
  <path fill="#40e584" d="M 57,49.5 80,70 110.5,46 Z"/>
  <path fill="#e55340" d="M 59,48.5 143.5,0 112,45 Z"/>
  <path fill="#8d416a" d="m 50.3,55 -6,34 20.2,14.5 z"/>
  <path fill="#005c92" d="m 59,77 19,-5 -9,8 z"/>
  <path fill="#07ffe9" d="m 57.5,77 8,27 27.5,23.4 z"/>
  <path fill="#e5404c" d="M 49.6,56 34.8,73.5 44,88.5 Z"/>
  <path fill="#e5b540" d="m 59,78 10,3 11.3,27.3 z"/>
</svg>
